<svg viewBox="0 0 60 60" fill="none" xmlns="http://www.w3.org/2000/svg"><path d="M50 32.4999C50 44.9999 41.25 51.2499 30.85 54.8749C30.3054 55.0595 29.7138 55.0506 29.175 54.8499C18.75 51.2499 10 44.9999 10 32.4999V14.9999C10 14.3369 10.2634 13.701 10.7322 13.2321C11.2011 12.7633 11.837 12.4999 12.5 12.4999C17.5 12.4999 23.75 9.4999 28.1 5.6999C28.6296 5.2474 29.3034 4.99878 30 4.99878C30.6966 4.99878 31.3704 5.2474 31.9 5.6999C36.275 9.5249 42.5 12.4999 47.5 12.4999C48.163 12.4999 48.7989 12.7633 49.2678 13.2321C49.7366 13.701 50 14.3369 50 14.9999V32.4999Z" stroke="#1F445A" stroke-width="3.75" stroke-linecap="round" stroke-linejoin="round"/><path d="M30 20V30" stroke="#1F445A" stroke-width="3.75" stroke-linecap="round" stroke-linejoin="round"/><path d="M30 40H30.025" stroke="#1F445A" stroke-width="3.75" stroke-linecap="round" stroke-linejoin="round"/></svg>
