<svg viewBox="0 0 60 60" fill="none" xmlns="http://www.w3.org/2000/svg"><path d="M30 52.3499C33.75 52.3499 36.875 54.9999 40 54.9999C47.5 54.9999 55 34.9999 55 24.4499C54.9148 21.2118 53.5531 18.1385 51.2116 15.9001C48.8701 13.6616 45.7387 12.4394 42.5 12.4999C36.95 12.4999 32.5 16.0999 30 17.4999C27.5 16.0999 23.05 12.4999 17.5 12.4999C14.2594 12.4328 11.1242 13.6528 8.78133 15.8926C6.4384 18.1325 5.07868 21.2096 5 24.4499C5 34.9999 12.5 54.9999 20 54.9999C23.125 54.9999 26.25 52.3499 30 52.3499Z" stroke="#1F445A" stroke-width="3.75" stroke-linecap="round" stroke-linejoin="round"/><path d="M25 5C27.5 6.25 30 10 30 17.5" stroke="#1F445A" stroke-width="3.75" stroke-linecap="round" stroke-linejoin="round"/></svg>
