<svg viewBox="0 0 60 60" fill="none" xmlns="http://www.w3.org/2000/svg"><path d="M30.0001 12.4999C30.003 11.5 29.806 10.5095 29.4205 9.58688C29.0351 8.66422 28.4691 7.82795 27.7557 7.12725C27.0424 6.42654 26.1961 5.87556 25.2667 5.50671C24.3373 5.13785 23.3435 4.95857 22.3438 4.97941C21.3441 5.00025 20.3586 5.22079 19.4454 5.62805C18.5322 6.03531 17.7096 6.62107 17.0261 7.35089C16.3425 8.08071 15.8118 8.93984 15.4652 9.87776C15.1185 10.8157 14.963 11.8134 15.0076 12.8124C13.5381 13.1902 12.1738 13.8975 11.0181 14.8807C9.86246 15.8638 8.94566 17.0971 8.33717 18.487C7.72868 19.8769 7.44446 21.3871 7.50604 22.9032C7.56761 24.4192 7.97336 25.9014 8.69256 27.2374C7.42801 28.2647 6.43363 29.5855 5.79591 31.0847C5.15819 32.584 4.89646 34.2164 5.03347 35.8398C5.17049 37.4633 5.70211 39.0288 6.58208 40.3999C7.46205 41.7711 8.66372 42.9065 10.0826 43.7074C9.90736 45.063 10.0119 46.4401 10.3898 47.7537C10.7676 49.0673 11.4108 50.2895 12.2795 51.3448C13.1482 52.4001 14.2241 53.2661 15.4406 53.8893C16.6571 54.5125 17.9885 54.8797 19.3525 54.9682C20.7165 55.0567 22.0842 54.8647 23.371 54.4039C24.6579 53.9431 25.8366 53.2235 26.8345 52.2893C27.8323 51.3551 28.628 50.2263 29.1725 48.9725C29.7169 47.7188 29.9986 46.3667 30.0001 44.9999V12.4999Z" stroke="#1F445A" stroke-width="3.75" stroke-linecap="round" stroke-linejoin="round"/><path d="M30 12.4999C29.9971 11.5 30.1941 10.5095 30.5795 9.58688C30.965 8.66422 31.531 7.82795 32.2444 7.12725C32.9577 6.42654 33.804 5.87556 34.7334 5.50671C35.6628 5.13785 36.6566 4.95857 37.6563 4.97941C38.656 5.00025 39.6415 5.22079 40.5547 5.62805C41.4679 6.03531 42.2905 6.62107 42.974 7.35089C43.6576 8.08071 44.1883 8.93984 44.5349 9.87776C44.8816 10.8157 45.0371 11.8134 44.9925 12.8124C46.462 13.1902 47.8263 13.8975 48.982 14.8807C50.1376 15.8638 51.0544 17.0971 51.6629 18.487C52.2714 19.8769 52.5556 21.3871 52.4941 22.9032C52.4325 24.4192 52.0267 25.9014 51.3075 27.2374C52.5721 28.2647 53.5665 29.5855 54.2042 31.0847C54.8419 32.584 55.1036 34.2164 54.9666 35.8398C54.8296 37.4633 54.298 39.0288 53.418 40.3999C52.538 41.7711 51.3364 42.9065 49.9175 43.7074C50.0927 45.063 49.9882 46.4401 49.6103 47.7537C49.2324 49.0673 48.5893 50.2895 47.7206 51.3448C46.8518 52.4001 45.776 53.2661 44.5595 53.8893C43.343 54.5125 42.0116 54.8797 40.6476 54.9682C39.2836 55.0567 37.9159 54.8647 36.6291 54.4039C35.3422 53.9431 34.1635 53.2235 33.1656 52.2893C32.1678 51.3551 31.3721 50.2263 30.8276 48.9725C30.2832 47.7188 30.0015 46.3667 30 44.9999V12.4999Z" stroke="#1F445A" stroke-width="3.75" stroke-linecap="round" stroke-linejoin="round"/><path d="M37.5 32.5C35.4011 31.7616 33.5683 30.4175 32.2333 28.6375C30.8983 26.8575 30.1211 24.7217 30 22.5C29.8789 24.7217 29.1017 26.8575 27.7667 28.6375C26.4317 30.4175 24.5989 31.7616 22.5 32.5" stroke="#1F445A" stroke-width="3.75" stroke-linecap="round" stroke-linejoin="round"/></svg>
