<svg viewBox="0 0 60 60" fill="none" xmlns="http://www.w3.org/2000/svg"><path d="M30 12.5C30 11.0166 30.4399 9.5666 31.264 8.33323C32.0881 7.09986 33.2594 6.13856 34.6299 5.57091C36.0003 5.00325 37.5083 4.85472 38.9632 5.14411C40.418 5.4335 41.7544 6.14781 42.8033 7.1967C43.8522 8.2456 44.5665 9.58197 44.8559 11.0368C45.1453 12.4917 44.9968 13.9997 44.4291 15.3701C43.8614 16.7406 42.9001 17.9119 41.6668 18.736C40.4334 19.5601 38.9834 20 37.5 20M30 12.5C30 11.0166 29.5601 9.5666 28.736 8.33323C27.9119 7.09986 26.7406 6.13856 25.3701 5.57091C23.9997 5.00325 22.4917 4.85472 21.0368 5.14411C19.582 5.4335 18.2456 6.14781 17.1967 7.1967C16.1478 8.2456 15.4335 9.58197 15.1441 11.0368C14.8547 12.4917 15.0032 13.9997 15.5709 15.3701C16.1386 16.7406 17.0999 17.9119 18.3332 18.736C19.5666 19.5601 21.0166 20 22.5 20M30 12.5V15M37.5 20C38.9834 20 40.4334 20.4399 41.6668 21.264C42.9001 22.0881 43.8614 23.2594 44.4291 24.6299C44.9968 26.0003 45.1453 27.5083 44.8559 28.9632C44.5665 30.418 43.8522 31.7544 42.8033 32.8033C41.7544 33.8522 40.418 34.5665 38.9632 34.8559C37.5083 35.1453 36.0003 34.9968 34.6299 34.4291C33.2594 33.8614 32.0881 32.9001 31.264 31.6668C30.4399 30.4334 30 28.9834 30 27.5M37.5 20H35M22.5 20C21.0166 20 19.5666 20.4399 18.3332 21.264C17.0999 22.0881 16.1386 23.2594 15.5709 24.6299C15.0032 26.0003 14.8547 27.5083 15.1441 28.9632C15.4335 30.418 16.1478 31.7544 17.1967 32.8033C18.2456 33.8522 19.582 34.5665 21.0368 34.8559C22.4917 35.1453 23.9997 34.9968 25.3701 34.4291C26.7406 33.8614 27.9119 32.9001 28.736 31.6668C29.5601 30.4334 30 28.9834 30 27.5M22.5 20H25M30 27.5V25" stroke="#1F445A" stroke-width="3.75" stroke-linecap="round" stroke-linejoin="round"/><path d="M30 25C32.7614 25 35 22.7614 35 20C35 17.2386 32.7614 15 30 15C27.2386 15 25 17.2386 25 20C25 22.7614 27.2386 25 30 25Z" stroke="#1F445A" stroke-width="3.75" stroke-linecap="round" stroke-linejoin="round"/><path d="M30 25V55" stroke="#1F445A" stroke-width="3.75" stroke-linecap="round" stroke-linejoin="round"/><path d="M30 55C40.5 55 47.5 50.8325 47.5 42.5C37 42.5 30 46.6675 30 55Z" stroke="#1F445A" stroke-width="3.75" stroke-linecap="round" stroke-linejoin="round"/><path d="M30 55C19.5 55 12.5 50.8325 12.5 42.5C23 42.5 30 46.6675 30 55Z" stroke="#1F445A" stroke-width="3.75" stroke-linecap="round" stroke-linejoin="round"/></svg>
