<svg version="1.0" xmlns="http://www.w3.org/2000/svg" width="1200.000000pt" height="800.000000pt" viewBox="0 0 1200.000000 800.000000" preserveAspectRatio="xMidYMid meet" style="width: 528.136377px; height: auto;"> <g transform="translate(0.000000,800.000000) scale(0.100000,-0.100000)" fill="#000000" stroke="none">    <path d="M6459 6040 c-45 -23 -96 -76 -113 -115 -31 -70 -36 -120 -39 -405 -2 -162 -8 -304 -13 -315 -6 -16 -12 -1 -25 65 -9 47 -22 108 -28 135 -20 88 -30 187 -31 315 -2 164 -11 234 -37 267 -32 45 -59 41 -112 -14 -40 -42 -57 -69 -105 -172 -14 -31 -12 -368 3 -431 6 -25 10 -110 10 -190 l-1 -145 -19 90 c-11 50 -24 106 -29 125 -28 110 -44 183 -59 270 -20 116 -29 149 -48 187 -27 53 -55 55 -99 6 -33 -35 -65 -94 -94 -170 -13 -36 -8 -184 10 -285 26 -148 31 -179 40 -273 10 -104 3 -282 -11 -291 -5 -3 -9 -14 -9 -25 0 -15 6 -20 22 -17 33 5 50 103 44 253 -5 112 -11 159 -36 295 -6 30 -13 71 -16 90 -3 19 -9 63 -15 97 -9 62 -3 115 24 188 12 33 65 116 81 127 17 11 33 -10 39 -50 30 -188 43 -244 119 -517 13 -44 15 -305 3 -372 -5 -29 -3 -43 4 -43 19 0 38 53 60 169 21 103 22 133 17 345 -3 127 -9 289 -12 361 -6 133 0 173 35 245 45 91 77 130 107 130 16 0 23 -8 29 -32 4 -18 11 -123 15 -233 8 -192 16 -262 40 -350 29 -103 33 -127 37 -230 3 -64 0 -125 -6 -147 -6 -21 -16 -57 -22 -80 -6 -24 -15 -51 -20 -60 -5 -10 -9 -23 -9 -28 0 -6 -9 -30 -20 -52 -11 -23 -16 -46 -12 -50 12 -12 42 1 42 18 0 8 4 22 10 32 14 24 61 170 71 217 10 51 27 134 41 205 6 30 14 186 17 345 4 161 12 304 18 321 14 40 43 95 57 109 31 30 77 55 100 55 24 0 26 -3 26 -47 1 -27 5 -106 11 -178 31 -410 30 -397 6 -435 -13 -19 -29 -51 -36 -70 -7 -19 -17 -44 -21 -55 -9 -20 -21 -77 -39 -175 -5 -30 -15 -154 -21 -275 -10 -205 -20 -288 -41 -342 -19 -48 -34 -79 -51 -105 -14 -20 -15 -28 -6 -34 14 -9 78 62 78 87 0 10 5 21 10 24 6 3 10 16 10 29 0 12 4 26 9 31 13 14 20 86 31 310 5 110 13 232 19 270 20 150 75 283 151 368 54 60 116 107 142 107 14 0 18 -8 18 -37 0 -20 -4 -50 -10 -67 -53 -167 -63 -205 -79 -286 -20 -101 -31 -211 -31 -313 -1 -106 -23 -369 -39 -447 -11 -53 -37 -149 -56 -205 -79 -233 -237 -506 -370 -639 -81 -81 -154 -132 -310 -216 -55 -30 -157 -92 -165 -100 -3 -3 -21 -17 -40 -30 -19 -13 -63 -52 -97 -88 -73 -75 -136 -193 -157 -292 -10 -51 -14 -60 -19 -40 -3 14 -8 70 -11 125 -4 55 -12 123 -20 150 -15 56 -50 146 -71 185 -17 31 -134 278 -145 305 -48 120 -77 217 -100 341 -14 69 -8 312 9 384 24 107 30 129 56 200 14 41 31 85 36 98 16 39 31 76 40 97 4 11 22 65 40 120 17 55 35 109 40 120 4 11 10 34 14 50 3 17 10 48 16 70 10 39 24 102 36 157 7 38 27 52 50 38 26 -17 57 -67 70 -115 29 -102 33 -127 33 -199 0 -106 -21 -185 -103 -386 -34 -82 -42 -109 -66 -213 -14 -62 -14 -251 0 -296 37 -114 107 -203 194 -245 112 -55 259 -52 368 9 58 32 132 111 164 173 24 50 28 68 28 147 0 69 -5 99 -20 130 -25 52 -84 109 -136 135 -60 28 -172 28 -234 -1 -55 -26 -109 -78 -138 -133 -17 -32 -22 -58 -22 -121 0 -69 4 -85 25 -115 13 -19 33 -43 45 -53 27 -25 81 -47 115 -47 58 0 128 47 159 107 6 12 11 45 11 74 0 48 -3 55 -40 91 -25 23 -51 38 -66 38 -40 0 -80 -26 -98 -65 -20 -41 -14 -84 14 -110 23 -21 74 -17 78 7 3 13 -1 16 -13 12 -19 -8 -55 22 -55 45 0 9 7 27 16 39 22 32 76 30 103 -4 12 -15 21 -40 21 -56 0 -41 -27 -93 -57 -114 -15 -9 -47 -17 -74 -17 -37 -1 -55 5 -83 27 -43 32 -66 82 -66 142 0 79 59 172 135 212 33 17 141 22 188 9 37 -10 113 -81 133 -124 10 -20 16 -61 17 -107 0 -56 -5 -85 -22 -122 -31 -66 -104 -140 -171 -172 -47 -22 -68 -26 -150 -26 -82 0 -103 4 -151 27 -65 30 -122 90 -152 156 -11 25 -26 80 -32 121 -10 60 -10 93 1 165 19 125 45 214 99 331 14 30 25 59 25 64 0 6 4 18 9 28 34 68 54 223 40 318 -14 99 -48 189 -87 235 -27 32 -40 39 -68 39 -55 0 -62 -12 -94 -155 -13 -56 -28 -117 -40 -155 -4 -14 -13 -45 -20 -70 -6 -25 -16 -53 -21 -62 -5 -10 -9 -26 -9 -36 0 -10 -4 -22 -8 -27 -4 -6 -14 -28 -21 -50 -7 -22 -17 -51 -23 -65 -6 -14 -15 -36 -21 -50 -5 -14 -13 -34 -18 -45 -15 -38 -67 -200 -77 -245 -19 -75 -32 -185 -32 -257 0 -66 19 -187 41 -268 6 -22 13 -52 16 -68 3 -15 9 -30 14 -33 5 -3 9 -16 9 -29 0 -13 5 -27 10 -30 6 -3 10 -13 10 -20 0 -17 29 -84 124 -280 40 -82 79 -166 86 -185 6 -19 16 -44 20 -55 20 -51 31 -144 35 -305 4 -182 11 -267 25 -310 4 -14 14 -45 21 -70 16 -56 84 -172 110 -188 16 -10 21 -10 25 2 3 9 -7 32 -25 53 -17 21 -31 43 -31 50 0 7 -4 13 -10 13 -5 0 -10 8 -10 18 0 10 -4 22 -8 27 -8 9 -16 34 -41 131 -6 23 -11 75 -11 117 0 53 6 87 20 118 11 24 20 54 20 67 0 21 3 31 28 79 7 13 12 30 12 38 0 8 5 15 10 15 6 0 10 5 10 11 0 20 78 125 131 175 30 27 81 69 115 92 59 39 80 52 209 122 33 18 67 38 75 44 8 7 28 18 43 26 41 20 190 162 242 229 56 74 100 148 190 321 17 33 40 85 60 140 9 25 21 54 26 65 14 34 46 147 57 205 26 134 32 188 42 405 6 127 15 262 21 300 9 61 37 179 70 295 6 19 16 61 23 93 11 51 11 62 -3 90 -10 20 -25 33 -39 35 -35 5 -89 -25 -138 -76 -24 -25 -46 -44 -48 -41 -2 2 -11 134 -20 294 -18 313 -21 325 -75 325 -14 -1 -42 -9 -62 -20z"></path>  <path d="M5815 4568 c-91 -23 -170 -64 -225 -118 -54 -53 -87 -102 -118 -179 -17 -42 -22 -74 -22 -147 0 -76 4 -103 22 -142 21 -44 43 -71 61 -72 12 0 8 19 -10 47 -54 82 -58 190 -12 311 23 59 38 81 94 137 95 96 164 125 295 125 60 0 101 -6 138 -19 59 -22 69 -28 125 -80 44 -41 76 -95 94 -161 15 -57 17 -193 2 -239 -21 -64 -69 -156 -99 -188 -17 -18 -30 -37 -30 -42 0 -23 40 -10 57 19 9 17 20 30 24 30 17 0 87 170 99 238 11 60 11 85 1 140 -16 82 -58 173 -104 227 -83 97 -255 146 -392 113z"></path> <path d="M6250 3448 c-85 -123 -149 -205 -186 -237 -34 -30 -115 -85 -309 -209 -144 -92 -222 -189 -250 -310 -23 -98 7 -181 100 -281 24 -25 52 -63 64 -84 21 -38 29 -115 12 -132 -4 -6 -11 -22 -15 -37 -5 -23 -3 -28 13 -28 27 0 43 48 43 123 -1 75 -20 115 -90 189 -68 71 -91 120 -92 195 0 50 6 73 32 125 32 62 130 173 176 197 21 11 21 9 -8 -47 -26 -52 -30 -70 -30 -141 0 -45 4 -89 9 -99 13 -25 52 -114 61 -137 35 -96 37 -125 14 -196 -9 -27 -14 -52 -12 -55 12 -11 35 9 46 40 15 41 16 156 1 193 -7 15 -18 43 -25 61 -35 82 -42 99 -52 133 -20 61 -14 110 25 198 23 50 87 115 158 161 35 22 80 54 100 71 19 17 38 29 41 27 3 -3 -2 -25 -10 -49 -18 -51 -22 -254 -6 -264 6 -3 10 -15 10 -25 0 -23 12 -31 28 -21 9 5 8 20 -4 60 -19 65 -15 170 10 255 18 65 67 163 97 195 10 11 19 23 19 26 0 4 13 25 29 48 16 23 38 59 50 80 15 27 17 37 7 37 -7 0 -33 -28 -56 -62z"></path> <path d="M5250 3055 c0 -22 4 -26 23 -23 14 2 22 10 22 23 0 13 -8 21 -22 23 -19 3 -23 -1 -23 -23z"></path> <path d="M5247 2932 c-10 -10 -17 -23 -17 -29 0 -5 11 -20 24 -32 19 -18 28 -21 44 -12 18 10 32 32 32 51 0 15 -31 40 -49 40 -10 0 -25 -8 -34 -18z"></path> <path d="M5850 2666 c0 -8 5 -18 10 -21 6 -3 10 -17 10 -31 0 -14 6 -24 14 -24 19 0 26 23 17 57 -5 18 -15 29 -29 31 -14 2 -22 -2 -22 -12z"></path> <path d="M6010 2487 c0 -19 10 -27 26 -20 21 8 17 33 -6 33 -11 0 -20 -6 -20 -13z"></path> <path d="M5697 2454 c-8 -8 1 -24 14 -24 5 0 9 7 9 15 0 15 -12 20 -23 9z"></path> <path d="M5588 2039 c-23 -13 -23 -32 1 -53 22 -20 48 -12 57 17 4 14 1 25 -12 34 -21 15 -24 16 -46 2z"></path> </g> </svg>